SPORTING 7  -  BENFICA 1

[14-12-1986] 


General Specs

Video: Xvid 672x384 25.00fps [Stream 00]
Audio: MPEG Audio Layer 3 48000Hz stereo 128kbps [Stream 01]

Complete name :Sporting-7.Benfica-1[1986]DvDrip-S@c0
Format : AVI
Format/Info : Audio Video Interleave
File size : 699 MiB
Duration : 1h 36mn
Overall bit rate : 1 016 Kbps
Writing application : VirtualDubMod 1.5.10.2 (build 2540/release)
Writing library : VirtualDubMod build 2540/release

Video
ID : 0
Format : MPEG-4 Visual
Format profile : Advanced Simple@L5
Format settings, BVOP : Yes
Format settings, QPel : No
Format settings, GMC : No warppoints
Format settings, Matrix : Custom
Codec ID : XVID
Codec ID/Hint : XviD
Duration : 1h 36mn
Bit rate : 881 Kbps
Width : 672 pixels
Height : 384 pixels
Display aspect ratio : 16:9
Frame rate : 25.000 fps
Color space : YUV
Chroma subsampling : 4:2:0
Bit depth : 8 bits
Scan type : Progressive
Bits/(Pixel*Frame) : 0.137
Stream size : 606 MiB (87%)
Writing library : XviD 1.2.1 (UTC 2008-12-04)

Audio
ID : 1
Format : MPEG Audio
Format version : Version 1
Format profile : Layer 3
Mode : Joint stereo
Mode extension : MS Stereo
Codec ID : 55
Codec ID/Hint : MP3
Duration : 1h 36mn
Bit rate mode : Constant
Bit rate : 128 Kbps
Channel(s) : 2 channels
Sampling rate : 48.0 KHz
Stream size : 88.0 MiB (13%)
Alignment : Aligned on interleaves
Interleave, duration : 80 ms (2.00 video frames)
Interleave, preload duration : 504 ms
Writing library : LAME3.98r
Encoding settings : -m j -V 4 -q 2 -lowpass 17 -b 128


ENJOY or not ... this is only a game...
Dedicated to all Sporting Clube de Portugal FANS Wink

Note: Don´t expect extreme quality from a "custom DvD", this is a extra quality rip but i don´t do miracles with custom DvD quality, i´m also sorry about evident técnical problems of the TV Station that day [14-12-1986] .
Anyway you can see this épic game.

MANTENHAM A SEMENTE, NÃO APAGUEM O TORRENT!!!

PLEASE SEED THIS TORRENT!!! 